<svg width="24" height="24" viewBox="0 0 24 24" fill="none" xmlns="http://www.w3.org/2000/svg">
<path d="M22.3125 11.0625H12.9375V1.6875C12.9375 1.43886 12.8387 1.2004 12.6629 1.02459C12.4871 0.848772 12.2486 0.75 12 0.75C11.7514 0.75 11.5129 0.848772 11.3371 1.02459C11.1613 1.2004 11.0625 1.43886 11.0625 1.6875V11.0625H1.6875C1.43886 11.0625 1.2004 11.1613 1.02459 11.3371C0.848772 11.5129 0.75 11.7514 0.75 12C0.75 12.2486 0.848772 12.4871 1.02459 12.6629C1.2004 12.8387 1.43886 12.9375 1.6875 12.9375H11.0625V22.3125C11.0625 22.5611 11.1613 22.7996 11.3371 22.9754C11.5129 23.1512 11.7514 23.25 12 23.25C12.2486 23.25 12.4871 23.1512 12.6629 22.9754C12.8387 22.7996 12.9375 22.5611 12.9375 22.3125V12.9375H22.3125C22.5611 12.9375 22.7996 12.8387 22.9754 12.6629C23.1512 12.4871 23.25 12.2486 23.25 12C23.25 11.7514 23.1512 11.5129 22.9754 11.3371C22.7996 11.1613 22.5611 11.0625 22.3125 11.0625Z" fill="#2B47FC"/>
</svg>
