<svg width="22" height="22" viewBox="0 0 22 22" fill="none" xmlns="http://www.w3.org/2000/svg">
<path d="M8.1875 0.6875H2.5625C1.52697 0.6875 0.6875 1.52697 0.6875 2.5625V8.1875C0.6875 9.22303 1.52697 10.0625 2.5625 10.0625H8.1875C9.22303 10.0625 10.0625 9.22303 10.0625 8.1875V2.5625C10.0625 1.52697 9.22303 0.6875 8.1875 0.6875Z" fill="#2B47FC"/>
<path d="M8.1875 11.9375H2.5625C1.52697 11.9375 0.6875 12.777 0.6875 13.8125V19.4375C0.6875 20.473 1.52697 21.3125 2.5625 21.3125H8.1875C9.22303 21.3125 10.0625 20.473 10.0625 19.4375V13.8125C10.0625 12.777 9.22303 11.9375 8.1875 11.9375Z" fill="#2B47FC"/>
<path d="M19.4375 0.6875H13.8125C12.777 0.6875 11.9375 1.52697 11.9375 2.5625V8.1875C11.9375 9.22303 12.777 10.0625 13.8125 10.0625H19.4375C20.473 10.0625 21.3125 9.22303 21.3125 8.1875V2.5625C21.3125 1.52697 20.473 0.6875 19.4375 0.6875Z" fill="#2B47FC"/>
<path d="M12.875 17.5625C13.1236 17.5625 13.3621 17.4637 13.5379 17.2879C13.7137 17.1121 13.8125 16.8736 13.8125 16.625V12.875C13.8125 12.6264 13.7137 12.3879 13.5379 12.2121C13.3621 12.0363 13.1236 11.9375 12.875 11.9375C12.6264 11.9375 12.3879 12.0363 12.2121 12.2121C12.0363 12.3879 11.9375 12.6264 11.9375 12.875V16.625C11.9375 16.8736 12.0363 17.1121 12.2121 17.2879C12.3879 17.4637 12.6264 17.5625 12.875 17.5625Z" fill="#2B47FC"/>
<path d="M20.375 13.8125H17.5625V12.875C17.5625 12.6264 17.4637 12.3879 17.2879 12.2121C17.1121 12.0363 16.8736 11.9375 16.625 11.9375C16.3764 11.9375 16.1379 12.0363 15.9621 12.2121C15.7863 12.3879 15.6875 12.6264 15.6875 12.875V19.4375H12.875C12.6264 19.4375 12.3879 19.5363 12.2121 19.7121C12.0363 19.8879 11.9375 20.1264 11.9375 20.375C11.9375 20.6236 12.0363 20.8621 12.2121 21.0379C12.3879 21.2137 12.6264 21.3125 12.875 21.3125H16.625C16.8736 21.3125 17.1121 21.2137 17.2879 21.0379C17.4637 20.8621 17.5625 20.6236 17.5625 20.375V15.6875H20.375C20.6236 15.6875 20.8621 15.5887 21.0379 15.4129C21.2137 15.2371 21.3125 14.9986 21.3125 14.75C21.3125 14.5014 21.2137 14.2629 21.0379 14.0871C20.8621 13.9113 20.6236 13.8125 20.375 13.8125Z" fill="#2B47FC"/>
<path d="M20.375 17.5625C20.1264 17.5625 19.8879 17.6613 19.7121 17.8371C19.5363 18.0129 19.4375 18.2514 19.4375 18.5V20.375C19.4375 20.6236 19.5363 20.8621 19.7121 21.0379C19.8879 21.2137 20.1264 21.3125 20.375 21.3125C20.6236 21.3125 20.8621 21.2137 21.0379 21.0379C21.2137 20.8621 21.3125 20.6236 21.3125 20.375V18.5C21.3125 18.2514 21.2137 18.0129 21.0379 17.8371C20.8621 17.6613 20.6236 17.5625 20.375 17.5625Z" fill="#2B47FC"/>
</svg>
