<svg width="24" height="25" viewBox="0 0 24 25" fill="none" xmlns="http://www.w3.org/2000/svg">
<path d="M21.375 0.6875H2.625C2.12772 0.6875 1.65081 0.885044 1.29917 1.23667C0.947544 1.58831 0.75 2.06522 0.75 2.5625V9.44141C0.75 19.918 9.63281 23.3984 11.4141 23.9844C11.7947 24.1096 12.2053 24.1096 12.5859 23.9844C14.3672 23.3984 23.25 19.918 23.25 9.44141V2.5625C23.25 2.06522 23.0525 1.58831 22.7008 1.23667C22.3492 0.885044 21.8723 0.6875 21.375 0.6875ZM12 22.2031C10.5117 21.7109 3.52734 18.9688 2.70703 11H12V2.5625H21.375V9.44141C21.3778 9.96209 21.3504 10.4825 21.293 11H12V22.2031Z" fill="#666666"/>
</svg>
