<svg width="26" height="20" viewBox="0 0 26 20" fill="none" xmlns="http://www.w3.org/2000/svg">
<path d="M24.25 0.625H1.75C1.50136 0.625 1.2629 0.723772 1.08709 0.899588C0.911272 1.0754 0.8125 1.31386 0.8125 1.5625V17.5C0.8125 17.9973 1.01004 18.4742 1.36167 18.8258C1.71331 19.1775 2.19022 19.375 2.6875 19.375H23.3125C23.8098 19.375 24.2867 19.1775 24.6383 18.8258C24.99 18.4742 25.1875 17.9973 25.1875 17.5V1.5625C25.1875 1.31386 25.0887 1.0754 24.9129 0.899588C24.7371 0.723772 24.4986 0.625 24.25 0.625ZM23.3125 17.5H2.6875V3.69531L12.3672 12.5664C12.54 12.7245 12.7658 12.8122 13 12.8122C13.2342 12.8122 13.46 12.7245 13.6328 12.5664L23.3125 3.69531V17.5Z" fill="#666666"/>
</svg>
