<svg width="30" height="20" viewBox="0 0 30 20" fill="none" xmlns="http://www.w3.org/2000/svg">
<path d="M14.2031 13.5039C15.461 12.6683 16.4164 11.45 16.9279 10.0293C17.4395 8.60849 17.4801 7.06077 17.0437 5.61514C16.6073 4.16951 15.7171 2.90278 14.5048 2.00242C13.2925 1.10206 11.8226 0.615906 10.3125 0.615906C8.80243 0.615906 7.33249 1.10206 6.12019 2.00242C4.9079 2.90278 4.01768 4.16951 3.58127 5.61514C3.14487 7.06077 3.18546 8.60849 3.69706 10.0293C4.20865 11.45 5.16405 12.6683 6.42187 13.5039C4.27614 14.293 2.42353 15.7202 1.11328 17.5937C1.01093 17.7327 0.950018 17.8978 0.937575 18.0699C0.925132 18.242 0.961671 18.4142 1.04297 18.5664C1.1233 18.7176 1.24305 18.8443 1.38953 18.933C1.53601 19.0217 1.70375 19.0692 1.875 19.0703H18.75C18.9212 19.0692 19.089 19.0217 19.2355 18.933C19.382 18.8443 19.5017 18.7176 19.582 18.5664C19.6633 18.4142 19.6999 18.242 19.6874 18.0699C19.675 17.8978 19.6141 17.7327 19.5117 17.5937C18.2015 15.7202 16.3489 14.293 14.2031 13.5039Z" fill="#666666"/>
<path d="M29.0742 17.5938C27.7565 15.7225 25.901 14.2962 23.7539 13.5039C25.0157 12.6715 25.9751 11.454 26.4894 10.0326C27.0036 8.61111 27.0453 7.0616 26.6082 5.61456C26.171 4.16751 25.2784 2.90023 24.0632 2.00124C22.8479 1.10225 21.3749 0.619574 19.8633 0.625015C19.2181 0.628437 18.5761 0.71509 17.9531 0.882828C17.8068 0.926778 17.6731 1.00499 17.563 1.11097C17.4529 1.21694 17.3698 1.34764 17.3203 1.4922C17.2732 1.63558 17.2613 1.78823 17.2858 1.93717C17.3103 2.08611 17.3704 2.22693 17.4609 2.34767C18.5208 3.7717 19.1297 5.48062 19.2091 7.254C19.2884 9.02738 18.8347 10.7839 17.9063 12.2969C17.7872 12.4979 17.7465 12.7358 17.7919 12.965C17.8373 13.1942 17.9656 13.3986 18.1523 13.5391C18.5039 13.8125 18.8438 14.0938 19.1719 14.3828L19.2305 14.4414C20.4813 15.5989 21.4961 16.9878 22.2188 18.5313C22.2929 18.6926 22.4119 18.8291 22.5615 18.9247C22.7111 19.0203 22.885 19.0708 23.0625 19.0703H28.3008C28.472 19.0692 28.6398 19.0218 28.7863 18.9331C28.9327 18.8443 29.0525 18.7177 29.1328 18.5664C29.2131 18.4145 29.2501 18.2434 29.2398 18.0719C29.2295 17.9003 29.1722 17.735 29.0742 17.5938Z" fill="#666666"/>
</svg>
