<svg width="24" height="27" viewBox="0 0 24 27" fill="none" xmlns="http://www.w3.org/2000/svg">
<path d="M12 17.8125C12.7767 17.8125 13.4062 17.1829 13.4062 16.4062C13.4062 15.6296 12.7767 15 12 15C11.2233 15 10.5938 15.6296 10.5938 16.4062C10.5938 17.1829 11.2233 17.8125 12 17.8125Z" fill="#666666"/>
<path d="M21.375 9.375H17.1562V6.09375C17.1562 4.72623 16.613 3.41472 15.646 2.44773C14.679 1.48075 13.3675 0.9375 12 0.9375C10.6325 0.9375 9.32096 1.48075 8.35398 2.44773C7.387 3.41472 6.84375 4.72623 6.84375 6.09375V9.375H2.625C2.12772 9.375 1.65081 9.57254 1.29917 9.92418C0.947544 10.2758 0.75 10.7527 0.75 11.25V24.375C0.75 24.8723 0.947544 25.3492 1.29917 25.7008C1.65081 26.0525 2.12772 26.25 2.625 26.25H21.375C21.8723 26.25 22.3492 26.0525 22.7008 25.7008C23.0525 25.3492 23.25 24.8723 23.25 24.375V11.25C23.25 10.7527 23.0525 10.2758 22.7008 9.92418C22.3492 9.57254 21.8723 9.375 21.375 9.375ZM12.9375 19.5469V21.5625C12.9375 21.8111 12.8387 22.0496 12.6629 22.2254C12.4871 22.4012 12.2486 22.5 12 22.5C11.7514 22.5 11.5129 22.4012 11.3371 22.2254C11.1613 22.0496 11.0625 21.8111 11.0625 21.5625V19.5469C10.3072 19.3217 9.65817 18.8321 9.23413 18.1678C8.81008 17.5034 8.63934 16.7086 8.75313 15.9287C8.86691 15.1488 9.25762 14.4359 9.85381 13.9204C10.45 13.4049 11.2118 13.1212 12 13.1212C12.7882 13.1212 13.55 13.4049 14.1462 13.9204C14.7424 14.4359 15.1331 15.1488 15.2469 15.9287C15.3607 16.7086 15.1899 17.5034 14.7659 18.1678C14.3418 18.8321 13.6928 19.3217 12.9375 19.5469V19.5469ZM15.2812 9.375H8.71875V6.09375C8.71875 5.22351 9.06445 4.38891 9.67981 3.77356C10.2952 3.1582 11.1298 2.8125 12 2.8125C12.8702 2.8125 13.7048 3.1582 14.3202 3.77356C14.9355 4.38891 15.2812 5.22351 15.2812 6.09375V9.375Z" fill="#666666"/>
</svg>
