<svg width="26" height="25" viewBox="0 0 26 25" fill="none" xmlns="http://www.w3.org/2000/svg">
<path d="M25.1758 22.8437C23.4265 19.8303 20.6264 17.5686 17.3125 16.4922C18.901 15.5476 20.1353 14.1076 20.8261 12.3935C21.5168 10.6793 21.6256 8.7858 21.1358 7.0038C20.646 5.22181 19.5846 3.64991 18.1148 2.5296C16.645 1.40928 14.8481 0.802521 13 0.802521C11.1519 0.802521 9.35495 1.40928 7.88515 2.5296C6.41535 3.64991 5.35403 5.22181 4.86423 7.0038C4.37443 8.7858 4.48323 10.6793 5.17394 12.3935C5.86465 14.1076 7.09904 15.5476 8.6875 16.4922C5.37355 17.5686 2.57352 19.8303 0.824216 22.8437C0.738331 22.985 0.692909 23.1472 0.692909 23.3125C0.692909 23.4778 0.738331 23.64 0.824216 23.7812C0.904346 23.9249 1.02176 24.0443 1.16407 24.1268C1.30638 24.2093 1.46832 24.2518 1.63281 24.25H24.3672C24.5317 24.2518 24.6936 24.2093 24.8359 24.1268C24.9782 24.0443 25.0956 23.9249 25.1758 23.7812C25.2617 23.64 25.3071 23.4778 25.3071 23.3125C25.3071 23.1472 25.2617 22.985 25.1758 22.8437Z" fill="#666666"/>
</svg>
